<?xml version="1.0" encoding="utf-8" standalone="no"?>
<!DOCTYPE svg PUBLIC "-//W3C//DTD SVG 1.1//EN"
  "http://www.w3.org/Graphics/SVG/1.1/DTD/svg11.dtd">
<svg xmlns:xlink="http://www.w3.org/1999/xlink" width="432pt" height="288pt" viewBox="0 0 432 288" xmlns="http://www.w3.org/2000/svg" version="1.1">
 <metadata>
  <rdf:RDF xmlns:dc="http://purl.org/dc/elements/1.1/" xmlns:cc="http://creativecommons.org/ns#" xmlns:rdf="http://www.w3.org/1999/02/22-rdf-syntax-ns#">
   <cc:Work>
    <dc:type rdf:resource="http://purl.org/dc/dcmitype/StillImage"/>
    <dc:date>2022-01-21T16:54:45.823601</dc:date>
    <dc:format>image/svg+xml</dc:format>
    <dc:creator>
     <cc:Agent>
      <dc:title>Matplotlib v3.5.1, https://matplotlib.org/</dc:title>
     </cc:Agent>
    </dc:creator>
   </cc:Work>
  </rdf:RDF>
 </metadata>
 <defs>
  <style type="text/css">*{stroke-linejoin: round; stroke-linecap: butt}</style>
 </defs>
 <g id="figure_1">
  <g id="patch_1">
   <path d="M 0 288 
L 432 288 
L 432 0 
L 0 0 
L 0 288 
z
" style="fill: none"/>
  </g>
  <g id="axes_1">
   <g id="patch_2">
    <path d="M 54 252 
L 388.8 252 
L 388.8 34.56 
L 54 34.56 
z
" style="fill: #ffffff"/>
   </g>
   <g id="matplotlib.axis_1">
    <g id="xtick_1">
     <g id="line2d_1">
      <defs>
       <path id="md5b75f02ad" d="M 0 0 
L 0 3.5 
" style="stroke: #000000; stroke-width: 0.8"/>
      </defs>
      <g>
       <use xlink:href="#md5b75f02ad" x="69.218182" y="252" style="stroke: #000000; stroke-width: 0.8"/>
      </g>
     </g>
     <g id="text_1">
      <!-- 0 -->
      <g transform="translate(66.036932 266.598437)scale(0.1 -0.1)">
       <defs>
        <path id="DejaVuSans-30" d="M 2034 4250 
Q 1547 4250 1301 3770 
Q 1056 3291 1056 2328 
Q 1056 1369 1301 889 
Q 1547 409 2034 409 
Q 2525 409 2770 889 
Q 3016 1369 3016 2328 
Q 3016 3291 2770 3770 
Q 2525 4250 2034 4250 
z
M 2034 4750 
Q 2819 4750 3233 4129 
Q 3647 3509 3647 2328 
Q 3647 1150 3233 529 
Q 2819 -91 2034 -91 
Q 1250 -91 836 529 
Q 422 1150 422 2328 
Q 422 3509 836 4129 
Q 1250 4750 2034 4750 
z
" transform="scale(0.015625)"/>
       </defs>
       <use xlink:href="#DejaVuSans-30"/>
      </g>
     </g>
    </g>
    <g id="xtick_2">
     <g id="line2d_2">
      <g>
       <use xlink:href="#md5b75f02ad" x="130.090909" y="252" style="stroke: #000000; stroke-width: 0.8"/>
      </g>
     </g>
     <g id="text_2">
      <!-- 100 -->
      <g transform="translate(120.547159 266.598437)scale(0.1 -0.1)">
       <defs>
        <path id="DejaVuSans-31" d="M 794 531 
L 1825 531 
L 1825 4091 
L 703 3866 
L 703 4441 
L 1819 4666 
L 2450 4666 
L 2450 531 
L 3481 531 
L 3481 0 
L 794 0 
L 794 531 
z
" transform="scale(0.015625)"/>
       </defs>
       <use xlink:href="#DejaVuSans-31"/>
       <use xlink:href="#DejaVuSans-30" x="63.623047"/>
       <use xlink:href="#DejaVuSans-30" x="127.246094"/>
      </g>
     </g>
    </g>
    <g id="xtick_3">
     <g id="line2d_3">
      <g>
       <use xlink:href="#md5b75f02ad" x="190.963636" y="252" style="stroke: #000000; stroke-width: 0.8"/>
      </g>
     </g>
     <g id="text_3">
      <!-- 200 -->
      <g transform="translate(181.419886 266.598437)scale(0.1 -0.1)">
       <defs>
        <path id="DejaVuSans-32" d="M 1228 531 
L 3431 531 
L 3431 0 
L 469 0 
L 469 531 
Q 828 903 1448 1529 
Q 2069 2156 2228 2338 
Q 2531 2678 2651 2914 
Q 2772 3150 2772 3378 
Q 2772 3750 2511 3984 
Q 2250 4219 1831 4219 
Q 1534 4219 1204 4116 
Q 875 4013 500 3803 
L 500 4441 
Q 881 4594 1212 4672 
Q 1544 4750 1819 4750 
Q 2544 4750 2975 4387 
Q 3406 4025 3406 3419 
Q 3406 3131 3298 2873 
Q 3191 2616 2906 2266 
Q 2828 2175 2409 1742 
Q 1991 1309 1228 531 
z
" transform="scale(0.015625)"/>
       </defs>
       <use xlink:href="#DejaVuSans-32"/>
       <use xlink:href="#DejaVuSans-30" x="63.623047"/>
       <use xlink:href="#DejaVuSans-30" x="127.246094"/>
      </g>
     </g>
    </g>
    <g id="xtick_4">
     <g id="line2d_4">
      <g>
       <use xlink:href="#md5b75f02ad" x="251.836364" y="252" style="stroke: #000000; stroke-width: 0.8"/>
      </g>
     </g>
     <g id="text_4">
      <!-- 300 -->
      <g transform="translate(242.292614 266.598437)scale(0.1 -0.1)">
       <defs>
        <path id="DejaVuSans-33" d="M 2597 2516 
Q 3050 2419 3304 2112 
Q 3559 1806 3559 1356 
Q 3559 666 3084 287 
Q 2609 -91 1734 -91 
Q 1441 -91 1130 -33 
Q 819 25 488 141 
L 488 750 
Q 750 597 1062 519 
Q 1375 441 1716 441 
Q 2309 441 2620 675 
Q 2931 909 2931 1356 
Q 2931 1769 2642 2001 
Q 2353 2234 1838 2234 
L 1294 2234 
L 1294 2753 
L 1863 2753 
Q 2328 2753 2575 2939 
Q 2822 3125 2822 3475 
Q 2822 3834 2567 4026 
Q 2313 4219 1838 4219 
Q 1578 4219 1281 4162 
Q 984 4106 628 3988 
L 628 4550 
Q 988 4650 1302 4700 
Q 1616 4750 1894 4750 
Q 2613 4750 3031 4423 
Q 3450 4097 3450 3541 
Q 3450 3153 3228 2886 
Q 3006 2619 2597 2516 
z
" transform="scale(0.015625)"/>
       </defs>
       <use xlink:href="#DejaVuSans-33"/>
       <use xlink:href="#DejaVuSans-30" x="63.623047"/>
       <use xlink:href="#DejaVuSans-30" x="127.246094"/>
      </g>
     </g>
    </g>
    <g id="xtick_5">
     <g id="line2d_5">
      <g>
       <use xlink:href="#md5b75f02ad" x="312.709091" y="252" style="stroke: #000000; stroke-width: 0.8"/>
      </g>
     </g>
     <g id="text_5">
      <!-- 400 -->
      <g transform="translate(303.165341 266.598437)scale(0.1 -0.1)">
       <defs>
        <path id="DejaVuSans-34" d="M 2419 4116 
L 825 1625 
L 2419 1625 
L 2419 4116 
z
M 2253 4666 
L 3047 4666 
L 3047 1625 
L 3713 1625 
L 3713 1100 
L 3047 1100 
L 3047 0 
L 2419 0 
L 2419 1100 
L 313 1100 
L 313 1709 
L 2253 4666 
z
" transform="scale(0.015625)"/>
       </defs>
       <use xlink:href="#DejaVuSans-34"/>
       <use xlink:href="#DejaVuSans-30" x="63.623047"/>
       <use xlink:href="#DejaVuSans-30" x="127.246094"/>
      </g>
     </g>
    </g>
    <g id="xtick_6">
     <g id="line2d_6">
      <g>
       <use xlink:href="#md5b75f02ad" x="373.581818" y="252" style="stroke: #000000; stroke-width: 0.8"/>
      </g>
     </g>
     <g id="text_6">
      <!-- 500 -->
      <g transform="translate(364.038068 266.598437)scale(0.1 -0.1)">
       <defs>
        <path id="DejaVuSans-35" d="M 691 4666 
L 3169 4666 
L 3169 4134 
L 1269 4134 
L 1269 2991 
Q 1406 3038 1543 3061 
Q 1681 3084 1819 3084 
Q 2600 3084 3056 2656 
Q 3513 2228 3513 1497 
Q 3513 744 3044 326 
Q 2575 -91 1722 -91 
Q 1428 -91 1123 -41 
Q 819 9 494 109 
L 494 744 
Q 775 591 1075 516 
Q 1375 441 1709 441 
Q 2250 441 2565 725 
Q 2881 1009 2881 1497 
Q 2881 1984 2565 2268 
Q 2250 2553 1709 2553 
Q 1456 2553 1204 2497 
Q 953 2441 691 2322 
L 691 4666 
z
" transform="scale(0.015625)"/>
       </defs>
       <use xlink:href="#DejaVuSans-35"/>
       <use xlink:href="#DejaVuSans-30" x="63.623047"/>
       <use xlink:href="#DejaVuSans-30" x="127.246094"/>
      </g>
     </g>
    </g>
    <g id="text_7">
     <!-- Elapsed Time (min) -->
     <g transform="translate(173.016406 280.276563)scale(0.1 -0.1)">
      <defs>
       <path id="DejaVuSans-45" d="M 628 4666 
L 3578 4666 
L 3578 4134 
L 1259 4134 
L 1259 2753 
L 3481 2753 
L 3481 2222 
L 1259 2222 
L 1259 531 
L 3634 531 
L 3634 0 
L 628 0 
L 628 4666 
z
" transform="scale(0.015625)"/>
       <path id="DejaVuSans-6c" d="M 603 4863 
L 1178 4863 
L 1178 0 
L 603 0 
L 603 4863 
z
" transform="scale(0.015625)"/>
       <path id="DejaVuSans-61" d="M 2194 1759 
Q 1497 1759 1228 1600 
Q 959 1441 959 1056 
Q 959 750 1161 570 
Q 1363 391 1709 391 
Q 2188 391 2477 730 
Q 2766 1069 2766 1631 
L 2766 1759 
L 2194 1759 
z
M 3341 1997 
L 3341 0 
L 2766 0 
L 2766 531 
Q 2569 213 2275 61 
Q 1981 -91 1556 -91 
Q 1019 -91 701 211 
Q 384 513 384 1019 
Q 384 1609 779 1909 
Q 1175 2209 1959 2209 
L 2766 2209 
L 2766 2266 
Q 2766 2663 2505 2880 
Q 2244 3097 1772 3097 
Q 1472 3097 1187 3025 
Q 903 2953 641 2809 
L 641 3341 
Q 956 3463 1253 3523 
Q 1550 3584 1831 3584 
Q 2591 3584 2966 3190 
Q 3341 2797 3341 1997 
z
" transform="scale(0.015625)"/>
       <path id="DejaVuSans-70" d="M 1159 525 
L 1159 -1331 
L 581 -1331 
L 581 3500 
L 1159 3500 
L 1159 2969 
Q 1341 3281 1617 3432 
Q 1894 3584 2278 3584 
Q 2916 3584 3314 3078 
Q 3713 2572 3713 1747 
Q 3713 922 3314 415 
Q 2916 -91 2278 -91 
Q 1894 -91 1617 61 
Q 1341 213 1159 525 
z
M 3116 1747 
Q 3116 2381 2855 2742 
Q 2594 3103 2138 3103 
Q 1681 3103 1420 2742 
Q 1159 2381 1159 1747 
Q 1159 1113 1420 752 
Q 1681 391 2138 391 
Q 2594 391 2855 752 
Q 3116 1113 3116 1747 
z
" transform="scale(0.015625)"/>
       <path id="DejaVuSans-73" d="M 2834 3397 
L 2834 2853 
Q 2591 2978 2328 3040 
Q 2066 3103 1784 3103 
Q 1356 3103 1142 2972 
Q 928 2841 928 2578 
Q 928 2378 1081 2264 
Q 1234 2150 1697 2047 
L 1894 2003 
Q 2506 1872 2764 1633 
Q 3022 1394 3022 966 
Q 3022 478 2636 193 
Q 2250 -91 1575 -91 
Q 1294 -91 989 -36 
Q 684 19 347 128 
L 347 722 
Q 666 556 975 473 
Q 1284 391 1588 391 
Q 1994 391 2212 530 
Q 2431 669 2431 922 
Q 2431 1156 2273 1281 
Q 2116 1406 1581 1522 
L 1381 1569 
Q 847 1681 609 1914 
Q 372 2147 372 2553 
Q 372 3047 722 3315 
Q 1072 3584 1716 3584 
Q 2034 3584 2315 3537 
Q 2597 3491 2834 3397 
z
" transform="scale(0.015625)"/>
       <path id="DejaVuSans-65" d="M 3597 1894 
L 3597 1613 
L 953 1613 
Q 991 1019 1311 708 
Q 1631 397 2203 397 
Q 2534 397 2845 478 
Q 3156 559 3463 722 
L 3463 178 
Q 3153 47 2828 -22 
Q 2503 -91 2169 -91 
Q 1331 -91 842 396 
Q 353 884 353 1716 
Q 353 2575 817 3079 
Q 1281 3584 2069 3584 
Q 2775 3584 3186 3129 
Q 3597 2675 3597 1894 
z
M 3022 2063 
Q 3016 2534 2758 2815 
Q 2500 3097 2075 3097 
Q 1594 3097 1305 2825 
Q 1016 2553 972 2059 
L 3022 2063 
z
" transform="scale(0.015625)"/>
       <path id="DejaVuSans-64" d="M 2906 2969 
L 2906 4863 
L 3481 4863 
L 3481 0 
L 2906 0 
L 2906 525 
Q 2725 213 2448 61 
Q 2172 -91 1784 -91 
Q 1150 -91 751 415 
Q 353 922 353 1747 
Q 353 2572 751 3078 
Q 1150 3584 1784 3584 
Q 2172 3584 2448 3432 
Q 2725 3281 2906 2969 
z
M 947 1747 
Q 947 1113 1208 752 
Q 1469 391 1925 391 
Q 2381 391 2643 752 
Q 2906 1113 2906 1747 
Q 2906 2381 2643 2742 
Q 2381 3103 1925 3103 
Q 1469 3103 1208 2742 
Q 947 2381 947 1747 
z
" transform="scale(0.015625)"/>
       <path id="DejaVuSans-20" transform="scale(0.015625)"/>
       <path id="DejaVuSans-54" d="M -19 4666 
L 3928 4666 
L 3928 4134 
L 2272 4134 
L 2272 0 
L 1638 0 
L 1638 4134 
L -19 4134 
L -19 4666 
z
" transform="scale(0.015625)"/>
       <path id="DejaVuSans-69" d="M 603 3500 
L 1178 3500 
L 1178 0 
L 603 0 
L 603 3500 
z
M 603 4863 
L 1178 4863 
L 1178 4134 
L 603 4134 
L 603 4863 
z
" transform="scale(0.015625)"/>
       <path id="DejaVuSans-6d" d="M 3328 2828 
Q 3544 3216 3844 3400 
Q 4144 3584 4550 3584 
Q 5097 3584 5394 3201 
Q 5691 2819 5691 2113 
L 5691 0 
L 5113 0 
L 5113 2094 
Q 5113 2597 4934 2840 
Q 4756 3084 4391 3084 
Q 3944 3084 3684 2787 
Q 3425 2491 3425 1978 
L 3425 0 
L 2847 0 
L 2847 2094 
Q 2847 2600 2669 2842 
Q 2491 3084 2119 3084 
Q 1678 3084 1418 2786 
Q 1159 2488 1159 1978 
L 1159 0 
L 581 0 
L 581 3500 
L 1159 3500 
L 1159 2956 
Q 1356 3278 1631 3431 
Q 1906 3584 2284 3584 
Q 2666 3584 2933 3390 
Q 3200 3197 3328 2828 
z
" transform="scale(0.015625)"/>
       <path id="DejaVuSans-28" d="M 1984 4856 
Q 1566 4138 1362 3434 
Q 1159 2731 1159 2009 
Q 1159 1288 1364 580 
Q 1569 -128 1984 -844 
L 1484 -844 
Q 1016 -109 783 600 
Q 550 1309 550 2009 
Q 550 2706 781 3412 
Q 1013 4119 1484 4856 
L 1984 4856 
z
" transform="scale(0.015625)"/>
       <path id="DejaVuSans-6e" d="M 3513 2113 
L 3513 0 
L 2938 0 
L 2938 2094 
Q 2938 2591 2744 2837 
Q 2550 3084 2163 3084 
Q 1697 3084 1428 2787 
Q 1159 2491 1159 1978 
L 1159 0 
L 581 0 
L 581 3500 
L 1159 3500 
L 1159 2956 
Q 1366 3272 1645 3428 
Q 1925 3584 2291 3584 
Q 2894 3584 3203 3211 
Q 3513 2838 3513 2113 
z
" transform="scale(0.015625)"/>
       <path id="DejaVuSans-29" d="M 513 4856 
L 1013 4856 
Q 1481 4119 1714 3412 
Q 1947 2706 1947 2009 
Q 1947 1309 1714 600 
Q 1481 -109 1013 -844 
L 513 -844 
Q 928 -128 1133 580 
Q 1338 1288 1338 2009 
Q 1338 2731 1133 3434 
Q 928 4138 513 4856 
z
" transform="scale(0.015625)"/>
      </defs>
      <use xlink:href="#DejaVuSans-45"/>
      <use xlink:href="#DejaVuSans-6c" x="63.183594"/>
      <use xlink:href="#DejaVuSans-61" x="90.966797"/>
      <use xlink:href="#DejaVuSans-70" x="152.246094"/>
      <use xlink:href="#DejaVuSans-73" x="215.722656"/>
      <use xlink:href="#DejaVuSans-65" x="267.822266"/>
      <use xlink:href="#DejaVuSans-64" x="329.345703"/>
      <use xlink:href="#DejaVuSans-20" x="392.822266"/>
      <use xlink:href="#DejaVuSans-54" x="424.609375"/>
      <use xlink:href="#DejaVuSans-69" x="482.568359"/>
      <use xlink:href="#DejaVuSans-6d" x="510.351562"/>
      <use xlink:href="#DejaVuSans-65" x="607.763672"/>
      <use xlink:href="#DejaVuSans-20" x="669.287109"/>
      <use xlink:href="#DejaVuSans-28" x="701.074219"/>
      <use xlink:href="#DejaVuSans-6d" x="740.087891"/>
      <use xlink:href="#DejaVuSans-69" x="837.5"/>
      <use xlink:href="#DejaVuSans-6e" x="865.283203"/>
      <use xlink:href="#DejaVuSans-29" x="928.662109"/>
     </g>
    </g>
   </g>
   <g id="matplotlib.axis_2">
    <g id="ytick_1">
     <g id="line2d_7">
      <defs>
       <path id="mecb710e217" d="M 0 0 
L -3.5 0 
" style="stroke: #000000; stroke-width: 0.8"/>
      </defs>
      <g>
       <use xlink:href="#mecb710e217" x="54" y="231.766274" style="stroke: #000000; stroke-width: 0.8"/>
      </g>
     </g>
     <g id="text_8">
      <!-- 24 -->
      <g transform="translate(34.275 235.565492)scale(0.1 -0.1)">
       <use xlink:href="#DejaVuSans-32"/>
       <use xlink:href="#DejaVuSans-34" x="63.623047"/>
      </g>
     </g>
    </g>
    <g id="ytick_2">
     <g id="line2d_8">
      <g>
       <use xlink:href="#mecb710e217" x="54" y="204.653082" style="stroke: #000000; stroke-width: 0.8"/>
      </g>
     </g>
     <g id="text_9">
      <!-- 26 -->
      <g transform="translate(34.275 208.452301)scale(0.1 -0.1)">
       <defs>
        <path id="DejaVuSans-36" d="M 2113 2584 
Q 1688 2584 1439 2293 
Q 1191 2003 1191 1497 
Q 1191 994 1439 701 
Q 1688 409 2113 409 
Q 2538 409 2786 701 
Q 3034 994 3034 1497 
Q 3034 2003 2786 2293 
Q 2538 2584 2113 2584 
z
M 3366 4563 
L 3366 3988 
Q 3128 4100 2886 4159 
Q 2644 4219 2406 4219 
Q 1781 4219 1451 3797 
Q 1122 3375 1075 2522 
Q 1259 2794 1537 2939 
Q 1816 3084 2150 3084 
Q 2853 3084 3261 2657 
Q 3669 2231 3669 1497 
Q 3669 778 3244 343 
Q 2819 -91 2113 -91 
Q 1303 -91 875 529 
Q 447 1150 447 2328 
Q 447 3434 972 4092 
Q 1497 4750 2381 4750 
Q 2619 4750 2861 4703 
Q 3103 4656 3366 4563 
z
" transform="scale(0.015625)"/>
       </defs>
       <use xlink:href="#DejaVuSans-32"/>
       <use xlink:href="#DejaVuSans-36" x="63.623047"/>
      </g>
     </g>
    </g>
    <g id="ytick_3">
     <g id="line2d_9">
      <g>
       <use xlink:href="#mecb710e217" x="54" y="177.539891" style="stroke: #000000; stroke-width: 0.8"/>
      </g>
     </g>
     <g id="text_10">
      <!-- 28 -->
      <g transform="translate(34.275 181.33911)scale(0.1 -0.1)">
       <defs>
        <path id="DejaVuSans-38" d="M 2034 2216 
Q 1584 2216 1326 1975 
Q 1069 1734 1069 1313 
Q 1069 891 1326 650 
Q 1584 409 2034 409 
Q 2484 409 2743 651 
Q 3003 894 3003 1313 
Q 3003 1734 2745 1975 
Q 2488 2216 2034 2216 
z
M 1403 2484 
Q 997 2584 770 2862 
Q 544 3141 544 3541 
Q 544 4100 942 4425 
Q 1341 4750 2034 4750 
Q 2731 4750 3128 4425 
Q 3525 4100 3525 3541 
Q 3525 3141 3298 2862 
Q 3072 2584 2669 2484 
Q 3125 2378 3379 2068 
Q 3634 1759 3634 1313 
Q 3634 634 3220 271 
Q 2806 -91 2034 -91 
Q 1263 -91 848 271 
Q 434 634 434 1313 
Q 434 1759 690 2068 
Q 947 2378 1403 2484 
z
M 1172 3481 
Q 1172 3119 1398 2916 
Q 1625 2713 2034 2713 
Q 2441 2713 2670 2916 
Q 2900 3119 2900 3481 
Q 2900 3844 2670 4047 
Q 2441 4250 2034 4250 
Q 1625 4250 1398 4047 
Q 1172 3844 1172 3481 
z
" transform="scale(0.015625)"/>
       </defs>
       <use xlink:href="#DejaVuSans-32"/>
       <use xlink:href="#DejaVuSans-38" x="63.623047"/>
      </g>
     </g>
    </g>
    <g id="ytick_4">
     <g id="line2d_10">
      <g>
       <use xlink:href="#mecb710e217" x="54" y="150.4267" style="stroke: #000000; stroke-width: 0.8"/>
      </g>
     </g>
     <g id="text_11">
      <!-- 30 -->
      <g transform="translate(34.275 154.225918)scale(0.1 -0.1)">
       <use xlink:href="#DejaVuSans-33"/>
       <use xlink:href="#DejaVuSans-30" x="63.623047"/>
      </g>
     </g>
    </g>
    <g id="ytick_5">
     <g id="line2d_11">
      <g>
       <use xlink:href="#mecb710e217" x="54" y="123.313508" style="stroke: #000000; stroke-width: 0.8"/>
      </g>
     </g>
     <g id="text_12">
      <!-- 32 -->
      <g transform="translate(34.275 127.112727)scale(0.1 -0.1)">
       <use xlink:href="#DejaVuSans-33"/>
       <use xlink:href="#DejaVuSans-32" x="63.623047"/>
      </g>
     </g>
    </g>
    <g id="ytick_6">
     <g id="line2d_12">
      <g>
       <use xlink:href="#mecb710e217" x="54" y="96.200317" style="stroke: #000000; stroke-width: 0.8"/>
      </g>
     </g>
     <g id="text_13">
      <!-- 34 -->
      <g transform="translate(34.275 99.999536)scale(0.1 -0.1)">
       <use xlink:href="#DejaVuSans-33"/>
       <use xlink:href="#DejaVuSans-34" x="63.623047"/>
      </g>
     </g>
    </g>
    <g id="ytick_7">
     <g id="line2d_13">
      <g>
       <use xlink:href="#mecb710e217" x="54" y="69.087126" style="stroke: #000000; stroke-width: 0.8"/>
      </g>
     </g>
     <g id="text_14">
      <!-- 36 -->
      <g transform="translate(34.275 72.886345)scale(0.1 -0.1)">
       <use xlink:href="#DejaVuSans-33"/>
       <use xlink:href="#DejaVuSans-36" x="63.623047"/>
      </g>
     </g>
    </g>
    <g id="ytick_8">
     <g id="line2d_14">
      <g>
       <use xlink:href="#mecb710e217" x="54" y="41.973935" style="stroke: #000000; stroke-width: 0.8"/>
      </g>
     </g>
     <g id="text_15">
      <!-- 38 -->
      <g transform="translate(34.275 45.773153)scale(0.1 -0.1)">
       <use xlink:href="#DejaVuSans-33"/>
       <use xlink:href="#DejaVuSans-38" x="63.623047"/>
      </g>
     </g>
    </g>
    <g id="text_16">
     <!-- Stock Price ($) -->
     <g transform="translate(28.195312 179.576875)rotate(-90)scale(0.1 -0.1)">
      <defs>
       <path id="DejaVuSans-53" d="M 3425 4513 
L 3425 3897 
Q 3066 4069 2747 4153 
Q 2428 4238 2131 4238 
Q 1616 4238 1336 4038 
Q 1056 3838 1056 3469 
Q 1056 3159 1242 3001 
Q 1428 2844 1947 2747 
L 2328 2669 
Q 3034 2534 3370 2195 
Q 3706 1856 3706 1288 
Q 3706 609 3251 259 
Q 2797 -91 1919 -91 
Q 1588 -91 1214 -16 
Q 841 59 441 206 
L 441 856 
Q 825 641 1194 531 
Q 1563 422 1919 422 
Q 2459 422 2753 634 
Q 3047 847 3047 1241 
Q 3047 1584 2836 1778 
Q 2625 1972 2144 2069 
L 1759 2144 
Q 1053 2284 737 2584 
Q 422 2884 422 3419 
Q 422 4038 858 4394 
Q 1294 4750 2059 4750 
Q 2388 4750 2728 4690 
Q 3069 4631 3425 4513 
z
" transform="scale(0.015625)"/>
       <path id="DejaVuSans-74" d="M 1172 4494 
L 1172 3500 
L 2356 3500 
L 2356 3053 
L 1172 3053 
L 1172 1153 
Q 1172 725 1289 603 
Q 1406 481 1766 481 
L 2356 481 
L 2356 0 
L 1766 0 
Q 1100 0 847 248 
Q 594 497 594 1153 
L 594 3053 
L 172 3053 
L 172 3500 
L 594 3500 
L 594 4494 
L 1172 4494 
z
" transform="scale(0.015625)"/>
       <path id="DejaVuSans-6f" d="M 1959 3097 
Q 1497 3097 1228 2736 
Q 959 2375 959 1747 
Q 959 1119 1226 758 
Q 1494 397 1959 397 
Q 2419 397 2687 759 
Q 2956 1122 2956 1747 
Q 2956 2369 2687 2733 
Q 2419 3097 1959 3097 
z
M 1959 3584 
Q 2709 3584 3137 3096 
Q 3566 2609 3566 1747 
Q 3566 888 3137 398 
Q 2709 -91 1959 -91 
Q 1206 -91 779 398 
Q 353 888 353 1747 
Q 353 2609 779 3096 
Q 1206 3584 1959 3584 
z
" transform="scale(0.015625)"/>
       <path id="DejaVuSans-63" d="M 3122 3366 
L 3122 2828 
Q 2878 2963 2633 3030 
Q 2388 3097 2138 3097 
Q 1578 3097 1268 2742 
Q 959 2388 959 1747 
Q 959 1106 1268 751 
Q 1578 397 2138 397 
Q 2388 397 2633 464 
Q 2878 531 3122 666 
L 3122 134 
Q 2881 22 2623 -34 
Q 2366 -91 2075 -91 
Q 1284 -91 818 406 
Q 353 903 353 1747 
Q 353 2603 823 3093 
Q 1294 3584 2113 3584 
Q 2378 3584 2631 3529 
Q 2884 3475 3122 3366 
z
" transform="scale(0.015625)"/>
       <path id="DejaVuSans-6b" d="M 581 4863 
L 1159 4863 
L 1159 1991 
L 2875 3500 
L 3609 3500 
L 1753 1863 
L 3688 0 
L 2938 0 
L 1159 1709 
L 1159 0 
L 581 0 
L 581 4863 
z
" transform="scale(0.015625)"/>
       <path id="DejaVuSans-50" d="M 1259 4147 
L 1259 2394 
L 2053 2394 
Q 2494 2394 2734 2622 
Q 2975 2850 2975 3272 
Q 2975 3691 2734 3919 
Q 2494 4147 2053 4147 
L 1259 4147 
z
M 628 4666 
L 2053 4666 
Q 2838 4666 3239 4311 
Q 3641 3956 3641 3272 
Q 3641 2581 3239 2228 
Q 2838 1875 2053 1875 
L 1259 1875 
L 1259 0 
L 628 0 
L 628 4666 
z
" transform="scale(0.015625)"/>
       <path id="DejaVuSans-72" d="M 2631 2963 
Q 2534 3019 2420 3045 
Q 2306 3072 2169 3072 
Q 1681 3072 1420 2755 
Q 1159 2438 1159 1844 
L 1159 0 
L 581 0 
L 581 3500 
L 1159 3500 
L 1159 2956 
Q 1341 3275 1631 3429 
Q 1922 3584 2338 3584 
Q 2397 3584 2469 3576 
Q 2541 3569 2628 3553 
L 2631 2963 
z
" transform="scale(0.015625)"/>
       <path id="DejaVuSans-24" d="M 2163 -941 
L 1850 -941 
L 1847 0 
Q 1519 6 1191 76 
Q 863 147 531 288 
L 531 850 
Q 850 650 1176 548 
Q 1503 447 1850 444 
L 1850 1869 
Q 1159 1981 845 2250 
Q 531 2519 531 2988 
Q 531 3497 872 3790 
Q 1213 4084 1850 4128 
L 1850 4863 
L 2163 4863 
L 2163 4138 
Q 2453 4125 2725 4076 
Q 2997 4028 3256 3944 
L 3256 3397 
Q 2997 3528 2723 3600 
Q 2450 3672 2163 3684 
L 2163 2350 
Q 2872 2241 3206 1959 
Q 3541 1678 3541 1191 
Q 3541 663 3186 358 
Q 2831 53 2163 6 
L 2163 -941 
z
M 1850 2406 
L 1850 3688 
Q 1488 3647 1297 3481 
Q 1106 3316 1106 3041 
Q 1106 2772 1282 2622 
Q 1459 2472 1850 2406 
z
M 2163 1806 
L 2163 453 
Q 2559 506 2761 678 
Q 2963 850 2963 1131 
Q 2963 1406 2770 1568 
Q 2578 1731 2163 1806 
z
" transform="scale(0.015625)"/>
      </defs>
      <use xlink:href="#DejaVuSans-53"/>
      <use xlink:href="#DejaVuSans-74" x="63.476562"/>
      <use xlink:href="#DejaVuSans-6f" x="102.685547"/>
      <use xlink:href="#DejaVuSans-63" x="163.867188"/>
      <use xlink:href="#DejaVuSans-6b" x="218.847656"/>
      <use xlink:href="#DejaVuSans-20" x="276.757812"/>
      <use xlink:href="#DejaVuSans-50" x="308.544922"/>
      <use xlink:href="#DejaVuSans-72" x="367.097656"/>
      <use xlink:href="#DejaVuSans-69" x="408.210938"/>
      <use xlink:href="#DejaVuSans-63" x="435.994141"/>
      <use xlink:href="#DejaVuSans-65" x="490.974609"/>
      <use xlink:href="#DejaVuSans-20" x="552.498047"/>
      <use xlink:href="#DejaVuSans-28" x="584.285156"/>
      <use xlink:href="#DejaVuSans-24" x="623.298828"/>
      <use xlink:href="#DejaVuSans-29" x="686.921875"/>
     </g>
    </g>
   </g>
   <g id="line2d_15">
    <path d="M 69.218182 150.4267 
L 69.826909 147.059823 
L 70.435636 147.99702 
L 71.044364 143.606794 
L 71.653091 133.283244 
L 72.870545 136.457455 
L 73.479273 125.753081 
L 74.088 120.55118 
L 74.696727 123.733417 
L 75.305455 120.055783 
L 76.522909 126.353821 
L 77.131636 124.713729 
L 78.349091 149.374519 
L 78.957818 153.185871 
L 79.566545 160.051142 
L 80.175273 157.92108 
L 80.784 164.075938 
L 81.392727 173.648953 
L 82.001455 163.714349 
L 82.610182 165.244728 
L 83.218909 164.787002 
L 83.827636 174.444369 
L 84.436364 178.134358 
L 85.045091 177.382491 
L 85.653818 185.184269 
L 86.262545 182.637676 
L 86.871273 186.708983 
L 87.48 188.686171 
L 88.088727 192.764717 
L 88.697455 180.209424 
L 89.306182 180.300912 
L 89.914909 187.470392 
L 90.523636 181.894938 
L 91.132364 190.170179 
L 91.741091 188.75444 
L 92.349818 202.037667 
L 92.958545 211.040508 
L 93.567273 209.706124 
L 94.176 204.700578 
L 94.784727 203.538992 
L 95.393455 204.322891 
L 96.002182 206.363861 
L 96.610909 216.385724 
L 97.219636 221.265042 
L 97.828364 224.387389 
L 98.437091 217.2219 
L 99.045818 214.892753 
L 99.654545 226.843164 
L 100.263273 224.646426 
L 100.872 227.256629 
L 101.480727 231.845007 
L 102.089455 227.698883 
L 103.306909 214.397968 
L 103.915636 220.086434 
L 104.524364 222.182367 
L 105.133091 219.936965 
L 105.741818 213.32443 
L 106.350545 216.572416 
L 106.959273 217.830867 
L 108.176727 233.43818 
L 108.785455 227.930638 
L 109.394182 218.737639 
L 110.002909 219.225745 
L 110.611636 212.4235 
L 111.220364 209.972224 
L 111.829091 214.345038 
L 112.437818 211.895391 
L 113.046545 201.470121 
L 113.655273 201.71296 
L 114.264 191.107339 
L 114.872727 208.864752 
L 115.481455 203.293652 
L 116.090182 202.703621 
L 116.698909 204.730382 
L 117.307636 204.1084 
L 117.916364 217.580734 
L 118.525091 219.069736 
L 119.133818 216.64912 
L 119.742545 206.631514 
L 120.351273 210.144504 
L 120.96 215.624715 
L 121.568727 219.025773 
L 122.177455 212.820905 
L 122.786182 210.592532 
L 123.394909 214.183405 
L 124.003636 210.704325 
L 124.612364 210.046305 
L 125.221091 203.48054 
L 125.829818 208.239265 
L 126.438545 210.460257 
L 127.047273 213.118083 
L 127.656 223.038223 
L 128.873455 219.261521 
L 129.482182 219.226861 
L 130.090909 220.816962 
L 130.699636 230.410766 
L 131.917091 235.585047 
L 132.525818 241.023121 
L 133.134545 242.116364 
L 133.743273 239.377587 
L 134.352 226.592457 
L 134.960727 225.409116 
L 135.569455 223.663363 
L 136.178182 224.16798 
L 136.786909 237.173982 
L 137.395636 237.353701 
L 138.004364 236.945443 
L 138.613091 220.248854 
L 139.221818 221.552734 
L 139.830545 219.508757 
L 140.439273 219.744043 
L 141.048 227.665691 
L 141.656727 219.919298 
L 142.874182 209.460622 
L 143.482909 215.624721 
L 144.091636 206.116163 
L 144.700364 215.618327 
L 145.309091 211.640435 
L 145.917818 196.792874 
L 146.526545 203.507024 
L 147.135273 207.345559 
L 147.744 206.670093 
L 148.352727 210.0828 
L 148.961455 220.593659 
L 149.570182 220.128919 
L 150.178909 227.32953 
L 150.787636 224.119379 
L 151.396364 230.35151 
L 152.005091 219.845593 
L 152.613818 225.154718 
L 153.222545 227.337746 
L 153.831273 221.823484 
L 154.44 230.166649 
L 155.048727 228.624858 
L 155.657455 219.764655 
L 156.266182 230.660655 
L 156.874909 229.409152 
L 157.483636 227.647589 
L 158.092364 222.348161 
L 159.309818 239.683029 
L 159.918545 236.145154 
L 161.744727 230.085859 
L 162.353455 234.695269 
L 162.962182 233.120984 
L 163.570909 231.134452 
L 164.179636 235.976539 
L 164.788364 223.329763 
L 165.397091 220.117983 
L 166.005818 228.192993 
L 166.614545 223.742677 
L 167.223273 230.349359 
L 167.832 225.014265 
L 168.440727 217.16096 
L 169.049455 222.723789 
L 169.658182 216.193738 
L 170.266909 213.395786 
L 170.875636 207.823618 
L 171.484364 194.96659 
L 172.093091 196.629904 
L 173.310545 207.768346 
L 173.919273 213.298151 
L 174.528 213.820769 
L 175.136727 211.508339 
L 175.745455 209.632847 
L 176.354182 204.025952 
L 176.962909 203.937822 
L 177.571636 194.085335 
L 178.180364 195.879258 
L 178.789091 177.441141 
L 179.397818 173.200181 
L 180.006545 179.01025 
L 180.615273 186.269079 
L 181.224 182.998737 
L 181.832727 184.513434 
L 182.441455 179.673726 
L 183.050182 176.465981 
L 183.658909 176.959637 
L 184.267636 182.699457 
L 184.876364 192.967543 
L 185.485091 195.994154 
L 186.093818 190.189228 
L 186.702545 188.738037 
L 187.311273 197.182025 
L 187.92 196.008153 
L 188.528727 193.396357 
L 189.137455 199.387406 
L 189.746182 198.345412 
L 190.354909 197.950856 
L 190.963636 205.698249 
L 191.572364 203.273059 
L 192.181091 199.471895 
L 193.398545 184.987667 
L 194.007273 194.32592 
L 194.616 200.682777 
L 196.442182 190.217974 
L 197.050909 164.103013 
L 197.659636 160.233347 
L 198.877091 146.069637 
L 199.485818 141.654313 
L 200.094545 143.791302 
L 200.703273 138.646782 
L 201.312 143.885222 
L 201.920727 145.490449 
L 202.529455 148.780387 
L 203.138182 148.22542 
L 203.746909 132.535975 
L 204.355636 145.192855 
L 204.964364 140.541179 
L 205.573091 151.472647 
L 206.181818 154.671542 
L 206.790545 147.29031 
L 207.399273 146.854601 
L 208.008 154.159876 
L 208.616727 159.008418 
L 209.225455 154.401902 
L 209.834182 159.352545 
L 210.442909 157.885324 
L 211.051636 157.576424 
L 211.660364 161.993165 
L 212.269091 147.460874 
L 212.877818 143.163982 
L 213.486545 156.891002 
L 214.095273 155.627159 
L 214.704 160.112944 
L 215.312727 154.334897 
L 215.921455 159.706839 
L 216.530182 160.484557 
L 217.138909 157.061603 
L 217.747636 151.193256 
L 218.356364 159.329223 
L 218.965091 161.596572 
L 219.573818 164.815892 
L 220.182545 169.244352 
L 220.791273 157.277578 
L 221.4 154.532491 
L 222.008727 163.079138 
L 222.617455 156.857596 
L 223.226182 142.47299 
L 223.834909 135.474633 
L 224.443636 145.773375 
L 225.052364 149.055658 
L 225.661091 140.468157 
L 226.269818 145.264951 
L 226.878545 142.256611 
L 227.487273 137.00591 
L 228.096 143.288921 
L 228.704727 143.692402 
L 229.313455 165.662677 
L 229.922182 172.606282 
L 230.530909 174.318264 
L 231.139636 182.77611 
L 231.748364 171.71114 
L 232.357091 181.405064 
L 232.965818 184.387817 
L 233.574545 183.501618 
L 234.183273 173.732238 
L 234.792 183.46494 
L 235.400727 175.580669 
L 236.009455 175.511307 
L 236.618182 182.164265 
L 237.226909 179.03199 
L 237.835636 177.682704 
L 238.444364 181.751152 
L 239.053091 181.278013 
L 239.661818 183.889783 
L 240.270545 183.120329 
L 240.879273 178.63221 
L 241.488 167.881716 
L 242.096727 176.271998 
L 242.705455 161.813662 
L 243.314182 175.045495 
L 243.922909 176.07434 
L 244.531636 172.08655 
L 245.140364 170.181904 
L 245.749091 174.402747 
L 246.357818 175.813461 
L 246.966545 179.155168 
L 247.575273 183.150058 
L 248.184 177.391202 
L 248.792727 174.971245 
L 249.401455 179.667992 
L 250.010182 173.570237 
L 250.618909 171.487269 
L 251.227636 165.977447 
L 251.836364 161.709636 
L 252.445091 167.328811 
L 253.053818 171.125885 
L 254.271273 161.923234 
L 254.88 162.064912 
L 255.488727 161.269632 
L 256.097455 152.609239 
L 256.706182 156.619086 
L 257.314909 152.910697 
L 258.532364 155.756727 
L 259.141091 148.30889 
L 260.358545 137.199761 
L 260.967273 128.350837 
L 261.576 128.208467 
L 262.184727 123.585987 
L 262.793455 125.689067 
L 263.402182 123.491771 
L 264.010909 124.373919 
L 264.619636 123.716452 
L 265.228364 119.6823 
L 265.837091 125.228444 
L 266.445818 111.04562 
L 267.054545 117.864705 
L 267.663273 126.094837 
L 268.272 118.244817 
L 268.880727 112.878691 
L 270.098182 104.389108 
L 270.706909 104.472121 
L 271.315636 110.553978 
L 271.924364 110.040152 
L 272.533091 114.630156 
L 273.141818 108.020504 
L 273.750545 109.017303 
L 274.359273 114.612768 
L 274.968 116.791217 
L 275.576727 113.992245 
L 276.185455 117.813338 
L 276.794182 123.386593 
L 278.011636 120.074352 
L 279.229091 126.703401 
L 279.837818 125.130498 
L 281.055273 144.486253 
L 281.664 149.356082 
L 282.272727 150.802891 
L 282.881455 148.695467 
L 283.490182 138.695063 
L 284.098909 132.88159 
L 284.707636 133.965701 
L 285.316364 134.094599 
L 285.925091 140.890042 
L 286.533818 141.015529 
L 287.142545 142.972143 
L 287.751273 140.784661 
L 288.36 146.391879 
L 288.968727 142.871593 
L 289.577455 132.482232 
L 290.186182 133.219441 
L 290.794909 130.496519 
L 291.403636 125.818518 
L 292.012364 128.53811 
L 292.621091 127.019144 
L 293.229818 126.933789 
L 293.838545 126.271711 
L 294.447273 131.511402 
L 295.056 131.345265 
L 295.664727 127.969684 
L 296.273455 118.1334 
L 296.882182 111.631177 
L 297.490909 97.036265 
L 298.099636 102.237575 
L 298.708364 96.324726 
L 299.317091 95.08198 
L 299.925818 80.238843 
L 301.143273 91.409614 
L 301.752 95.472476 
L 302.360727 109.868874 
L 302.969455 113.432598 
L 303.578182 118.578225 
L 304.186909 117.558811 
L 304.795636 115.242288 
L 305.404364 102.525043 
L 306.013091 96.082787 
L 306.621818 99.993212 
L 307.230545 106.082934 
L 307.839273 102.748559 
L 308.448 111.697493 
L 309.056727 99.28332 
L 309.665455 91.288724 
L 310.274182 94.468936 
L 310.882909 106.081072 
L 311.491636 96.904122 
L 312.100364 97.680507 
L 312.709091 89.29022 
L 313.317818 100.097725 
L 313.926545 104.160468 
L 314.535273 104.124924 
L 315.144 103.806476 
L 315.752727 106.857154 
L 316.361455 102.635291 
L 316.970182 109.871941 
L 317.578909 110.837031 
L 318.187636 110.021632 
L 318.796364 106.534612 
L 319.405091 101.711074 
L 320.013818 109.334233 
L 320.622545 119.732916 
L 321.231273 111.072442 
L 321.84 108.819919 
L 322.448727 113.893383 
L 323.057455 103.379213 
L 323.666182 102.595136 
L 324.274909 94.601509 
L 324.883636 94.143848 
L 326.101091 68.277262 
L 326.709818 69.964815 
L 327.318545 63.379218 
L 327.927273 59.004668 
L 328.536 49.727675 
L 329.144727 56.268214 
L 329.753455 51.617953 
L 330.362182 44.443636 
L 330.970909 56.364896 
L 331.579636 64.385375 
L 332.188364 78.207898 
L 332.797091 80.034018 
L 333.405818 75.170303 
L 334.014545 64.986879 
L 334.623273 64.484643 
L 335.232 53.445401 
L 335.840727 62.80014 
L 336.449455 74.346174 
L 337.058182 74.722692 
L 337.666909 72.119382 
L 338.275636 72.340997 
L 338.884364 86.354736 
L 339.493091 86.958818 
L 340.101818 95.8009 
L 340.710545 91.26166 
L 341.319273 88.776748 
L 341.928 95.147534 
L 342.536727 98.630677 
L 343.145455 105.810341 
L 343.754182 106.235199 
L 344.362909 99.76096 
L 344.971636 106.442504 
L 345.580364 103.025927 
L 346.189091 106.620171 
L 346.797818 111.994499 
L 347.406545 112.719983 
L 348.015273 119.737164 
L 348.624 123.489964 
L 349.232727 131.609537 
L 349.841455 118.292045 
L 350.450182 118.053018 
L 351.058909 122.795966 
L 351.667636 121.345546 
L 352.276364 122.106939 
L 352.885091 123.604737 
L 353.493818 119.441732 
L 354.102545 114.307119 
L 355.32 121.806081 
L 355.928727 123.670464 
L 356.537455 139.273571 
L 357.146182 149.543987 
L 357.754909 140.278906 
L 358.363636 129.128825 
L 358.972364 130.816866 
L 359.581091 126.908791 
L 360.189818 124.799045 
L 360.798545 103.929474 
L 361.407273 96.340661 
L 362.016 97.207725 
L 362.624727 103.684663 
L 363.233455 114.573634 
L 363.842182 113.194497 
L 364.450909 118.321268 
L 365.059636 127.961727 
L 365.668364 132.344391 
L 366.277091 139.675445 
L 366.885818 128.239497 
L 367.494545 122.26348 
L 368.103273 122.317521 
L 368.712 112.286019 
L 369.320727 111.761593 
L 369.929455 117.599634 
L 370.538182 107.275445 
L 371.146909 103.622553 
L 371.755636 110.653316 
L 372.364364 111.943488 
L 372.973091 117.878689 
L 373.581818 127.251718 
L 373.581818 127.251718 
" clip-path="url(#p0a39337e8a)" style="fill: none; stroke: #1f77b4; stroke-width: 1.5; stroke-linecap: square"/>
   </g>
   <g id="patch_3">
    <path d="M 54 252 
L 54 34.56 
" style="fill: none; stroke: #000000; stroke-width: 0.8; stroke-linejoin: miter; stroke-linecap: square"/>
   </g>
   <g id="patch_4">
    <path d="M 388.8 252 
L 388.8 34.56 
" style="fill: none; stroke: #000000; stroke-width: 0.8; stroke-linejoin: miter; stroke-linecap: square"/>
   </g>
   <g id="patch_5">
    <path d="M 54 252 
L 388.8 252 
" style="fill: none; stroke: #000000; stroke-width: 0.8; stroke-linejoin: miter; stroke-linecap: square"/>
   </g>
   <g id="patch_6">
    <path d="M 54 34.56 
L 388.8 34.56 
" style="fill: none; stroke: #000000; stroke-width: 0.8; stroke-linejoin: miter; stroke-linecap: square"/>
   </g>
  </g>
 </g>
 <defs>
  <clipPath id="p0a39337e8a">
   <rect x="54" y="34.56" width="334.8" height="217.44"/>
  </clipPath>
 </defs>
</svg>
