<?xml version="1.0" encoding="utf-8" standalone="no"?>
<!DOCTYPE svg PUBLIC "-//W3C//DTD SVG 1.1//EN"
  "http://www.w3.org/Graphics/SVG/1.1/DTD/svg11.dtd">
<svg xmlns:xlink="http://www.w3.org/1999/xlink" width="432pt" height="288pt" viewBox="0 0 432 288" xmlns="http://www.w3.org/2000/svg" version="1.1">
 <metadata>
  <rdf:RDF xmlns:dc="http://purl.org/dc/elements/1.1/" xmlns:cc="http://creativecommons.org/ns#" xmlns:rdf="http://www.w3.org/1999/02/22-rdf-syntax-ns#">
   <cc:Work>
    <dc:type rdf:resource="http://purl.org/dc/dcmitype/StillImage"/>
    <dc:date>2022-01-20T17:50:58.554766</dc:date>
    <dc:format>image/svg+xml</dc:format>
    <dc:creator>
     <cc:Agent>
      <dc:title>Matplotlib v3.5.1, https://matplotlib.org/</dc:title>
     </cc:Agent>
    </dc:creator>
   </cc:Work>
  </rdf:RDF>
 </metadata>
 <defs>
  <style type="text/css">*{stroke-linejoin: round; stroke-linecap: butt}</style>
 </defs>
 <g id="figure_1">
  <g id="patch_1">
   <path d="M 0 288 
L 432 288 
L 432 0 
L 0 0 
L 0 288 
z
" style="fill: none"/>
  </g>
  <g id="axes_1">
   <g id="patch_2">
    <path d="M 54 252 
L 388.8 252 
L 388.8 34.56 
L 54 34.56 
z
" style="fill: #ffffff"/>
   </g>
   <g id="matplotlib.axis_1">
    <g id="xtick_1">
     <g id="line2d_1">
      <defs>
       <path id="mb9fa25e725" d="M 0 0 
L 0 3.5 
" style="stroke: #000000; stroke-width: 0.8"/>
      </defs>
      <g>
       <use xlink:href="#mb9fa25e725" x="69.218182" y="252" style="stroke: #000000; stroke-width: 0.8"/>
      </g>
     </g>
     <g id="text_1">
      <!-- 0 -->
      <g transform="translate(66.036932 266.598437)scale(0.1 -0.1)">
       <defs>
        <path id="DejaVuSans-30" d="M 2034 4250 
Q 1547 4250 1301 3770 
Q 1056 3291 1056 2328 
Q 1056 1369 1301 889 
Q 1547 409 2034 409 
Q 2525 409 2770 889 
Q 3016 1369 3016 2328 
Q 3016 3291 2770 3770 
Q 2525 4250 2034 4250 
z
M 2034 4750 
Q 2819 4750 3233 4129 
Q 3647 3509 3647 2328 
Q 3647 1150 3233 529 
Q 2819 -91 2034 -91 
Q 1250 -91 836 529 
Q 422 1150 422 2328 
Q 422 3509 836 4129 
Q 1250 4750 2034 4750 
z
" transform="scale(0.015625)"/>
       </defs>
       <use xlink:href="#DejaVuSans-30"/>
      </g>
     </g>
    </g>
    <g id="xtick_2">
     <g id="line2d_2">
      <g>
       <use xlink:href="#mb9fa25e725" x="130.090909" y="252" style="stroke: #000000; stroke-width: 0.8"/>
      </g>
     </g>
     <g id="text_2">
      <!-- 100 -->
      <g transform="translate(120.547159 266.598437)scale(0.1 -0.1)">
       <defs>
        <path id="DejaVuSans-31" d="M 794 531 
L 1825 531 
L 1825 4091 
L 703 3866 
L 703 4441 
L 1819 4666 
L 2450 4666 
L 2450 531 
L 3481 531 
L 3481 0 
L 794 0 
L 794 531 
z
" transform="scale(0.015625)"/>
       </defs>
       <use xlink:href="#DejaVuSans-31"/>
       <use xlink:href="#DejaVuSans-30" x="63.623047"/>
       <use xlink:href="#DejaVuSans-30" x="127.246094"/>
      </g>
     </g>
    </g>
    <g id="xtick_3">
     <g id="line2d_3">
      <g>
       <use xlink:href="#mb9fa25e725" x="190.963636" y="252" style="stroke: #000000; stroke-width: 0.8"/>
      </g>
     </g>
     <g id="text_3">
      <!-- 200 -->
      <g transform="translate(181.419886 266.598437)scale(0.1 -0.1)">
       <defs>
        <path id="DejaVuSans-32" d="M 1228 531 
L 3431 531 
L 3431 0 
L 469 0 
L 469 531 
Q 828 903 1448 1529 
Q 2069 2156 2228 2338 
Q 2531 2678 2651 2914 
Q 2772 3150 2772 3378 
Q 2772 3750 2511 3984 
Q 2250 4219 1831 4219 
Q 1534 4219 1204 4116 
Q 875 4013 500 3803 
L 500 4441 
Q 881 4594 1212 4672 
Q 1544 4750 1819 4750 
Q 2544 4750 2975 4387 
Q 3406 4025 3406 3419 
Q 3406 3131 3298 2873 
Q 3191 2616 2906 2266 
Q 2828 2175 2409 1742 
Q 1991 1309 1228 531 
z
" transform="scale(0.015625)"/>
       </defs>
       <use xlink:href="#DejaVuSans-32"/>
       <use xlink:href="#DejaVuSans-30" x="63.623047"/>
       <use xlink:href="#DejaVuSans-30" x="127.246094"/>
      </g>
     </g>
    </g>
    <g id="xtick_4">
     <g id="line2d_4">
      <g>
       <use xlink:href="#mb9fa25e725" x="251.836364" y="252" style="stroke: #000000; stroke-width: 0.8"/>
      </g>
     </g>
     <g id="text_4">
      <!-- 300 -->
      <g transform="translate(242.292614 266.598437)scale(0.1 -0.1)">
       <defs>
        <path id="DejaVuSans-33" d="M 2597 2516 
Q 3050 2419 3304 2112 
Q 3559 1806 3559 1356 
Q 3559 666 3084 287 
Q 2609 -91 1734 -91 
Q 1441 -91 1130 -33 
Q 819 25 488 141 
L 488 750 
Q 750 597 1062 519 
Q 1375 441 1716 441 
Q 2309 441 2620 675 
Q 2931 909 2931 1356 
Q 2931 1769 2642 2001 
Q 2353 2234 1838 2234 
L 1294 2234 
L 1294 2753 
L 1863 2753 
Q 2328 2753 2575 2939 
Q 2822 3125 2822 3475 
Q 2822 3834 2567 4026 
Q 2313 4219 1838 4219 
Q 1578 4219 1281 4162 
Q 984 4106 628 3988 
L 628 4550 
Q 988 4650 1302 4700 
Q 1616 4750 1894 4750 
Q 2613 4750 3031 4423 
Q 3450 4097 3450 3541 
Q 3450 3153 3228 2886 
Q 3006 2619 2597 2516 
z
" transform="scale(0.015625)"/>
       </defs>
       <use xlink:href="#DejaVuSans-33"/>
       <use xlink:href="#DejaVuSans-30" x="63.623047"/>
       <use xlink:href="#DejaVuSans-30" x="127.246094"/>
      </g>
     </g>
    </g>
    <g id="xtick_5">
     <g id="line2d_5">
      <g>
       <use xlink:href="#mb9fa25e725" x="312.709091" y="252" style="stroke: #000000; stroke-width: 0.8"/>
      </g>
     </g>
     <g id="text_5">
      <!-- 400 -->
      <g transform="translate(303.165341 266.598437)scale(0.1 -0.1)">
       <defs>
        <path id="DejaVuSans-34" d="M 2419 4116 
L 825 1625 
L 2419 1625 
L 2419 4116 
z
M 2253 4666 
L 3047 4666 
L 3047 1625 
L 3713 1625 
L 3713 1100 
L 3047 1100 
L 3047 0 
L 2419 0 
L 2419 1100 
L 313 1100 
L 313 1709 
L 2253 4666 
z
" transform="scale(0.015625)"/>
       </defs>
       <use xlink:href="#DejaVuSans-34"/>
       <use xlink:href="#DejaVuSans-30" x="63.623047"/>
       <use xlink:href="#DejaVuSans-30" x="127.246094"/>
      </g>
     </g>
    </g>
    <g id="xtick_6">
     <g id="line2d_6">
      <g>
       <use xlink:href="#mb9fa25e725" x="373.581818" y="252" style="stroke: #000000; stroke-width: 0.8"/>
      </g>
     </g>
     <g id="text_6">
      <!-- 500 -->
      <g transform="translate(364.038068 266.598437)scale(0.1 -0.1)">
       <defs>
        <path id="DejaVuSans-35" d="M 691 4666 
L 3169 4666 
L 3169 4134 
L 1269 4134 
L 1269 2991 
Q 1406 3038 1543 3061 
Q 1681 3084 1819 3084 
Q 2600 3084 3056 2656 
Q 3513 2228 3513 1497 
Q 3513 744 3044 326 
Q 2575 -91 1722 -91 
Q 1428 -91 1123 -41 
Q 819 9 494 109 
L 494 744 
Q 775 591 1075 516 
Q 1375 441 1709 441 
Q 2250 441 2565 725 
Q 2881 1009 2881 1497 
Q 2881 1984 2565 2268 
Q 2250 2553 1709 2553 
Q 1456 2553 1204 2497 
Q 953 2441 691 2322 
L 691 4666 
z
" transform="scale(0.015625)"/>
       </defs>
       <use xlink:href="#DejaVuSans-35"/>
       <use xlink:href="#DejaVuSans-30" x="63.623047"/>
       <use xlink:href="#DejaVuSans-30" x="127.246094"/>
      </g>
     </g>
    </g>
    <g id="text_7">
     <!-- Elapsed Time (min) -->
     <g transform="translate(173.016406 280.276563)scale(0.1 -0.1)">
      <defs>
       <path id="DejaVuSans-45" d="M 628 4666 
L 3578 4666 
L 3578 4134 
L 1259 4134 
L 1259 2753 
L 3481 2753 
L 3481 2222 
L 1259 2222 
L 1259 531 
L 3634 531 
L 3634 0 
L 628 0 
L 628 4666 
z
" transform="scale(0.015625)"/>
       <path id="DejaVuSans-6c" d="M 603 4863 
L 1178 4863 
L 1178 0 
L 603 0 
L 603 4863 
z
" transform="scale(0.015625)"/>
       <path id="DejaVuSans-61" d="M 2194 1759 
Q 1497 1759 1228 1600 
Q 959 1441 959 1056 
Q 959 750 1161 570 
Q 1363 391 1709 391 
Q 2188 391 2477 730 
Q 2766 1069 2766 1631 
L 2766 1759 
L 2194 1759 
z
M 3341 1997 
L 3341 0 
L 2766 0 
L 2766 531 
Q 2569 213 2275 61 
Q 1981 -91 1556 -91 
Q 1019 -91 701 211 
Q 384 513 384 1019 
Q 384 1609 779 1909 
Q 1175 2209 1959 2209 
L 2766 2209 
L 2766 2266 
Q 2766 2663 2505 2880 
Q 2244 3097 1772 3097 
Q 1472 3097 1187 3025 
Q 903 2953 641 2809 
L 641 3341 
Q 956 3463 1253 3523 
Q 1550 3584 1831 3584 
Q 2591 3584 2966 3190 
Q 3341 2797 3341 1997 
z
" transform="scale(0.015625)"/>
       <path id="DejaVuSans-70" d="M 1159 525 
L 1159 -1331 
L 581 -1331 
L 581 3500 
L 1159 3500 
L 1159 2969 
Q 1341 3281 1617 3432 
Q 1894 3584 2278 3584 
Q 2916 3584 3314 3078 
Q 3713 2572 3713 1747 
Q 3713 922 3314 415 
Q 2916 -91 2278 -91 
Q 1894 -91 1617 61 
Q 1341 213 1159 525 
z
M 3116 1747 
Q 3116 2381 2855 2742 
Q 2594 3103 2138 3103 
Q 1681 3103 1420 2742 
Q 1159 2381 1159 1747 
Q 1159 1113 1420 752 
Q 1681 391 2138 391 
Q 2594 391 2855 752 
Q 3116 1113 3116 1747 
z
" transform="scale(0.015625)"/>
       <path id="DejaVuSans-73" d="M 2834 3397 
L 2834 2853 
Q 2591 2978 2328 3040 
Q 2066 3103 1784 3103 
Q 1356 3103 1142 2972 
Q 928 2841 928 2578 
Q 928 2378 1081 2264 
Q 1234 2150 1697 2047 
L 1894 2003 
Q 2506 1872 2764 1633 
Q 3022 1394 3022 966 
Q 3022 478 2636 193 
Q 2250 -91 1575 -91 
Q 1294 -91 989 -36 
Q 684 19 347 128 
L 347 722 
Q 666 556 975 473 
Q 1284 391 1588 391 
Q 1994 391 2212 530 
Q 2431 669 2431 922 
Q 2431 1156 2273 1281 
Q 2116 1406 1581 1522 
L 1381 1569 
Q 847 1681 609 1914 
Q 372 2147 372 2553 
Q 372 3047 722 3315 
Q 1072 3584 1716 3584 
Q 2034 3584 2315 3537 
Q 2597 3491 2834 3397 
z
" transform="scale(0.015625)"/>
       <path id="DejaVuSans-65" d="M 3597 1894 
L 3597 1613 
L 953 1613 
Q 991 1019 1311 708 
Q 1631 397 2203 397 
Q 2534 397 2845 478 
Q 3156 559 3463 722 
L 3463 178 
Q 3153 47 2828 -22 
Q 2503 -91 2169 -91 
Q 1331 -91 842 396 
Q 353 884 353 1716 
Q 353 2575 817 3079 
Q 1281 3584 2069 3584 
Q 2775 3584 3186 3129 
Q 3597 2675 3597 1894 
z
M 3022 2063 
Q 3016 2534 2758 2815 
Q 2500 3097 2075 3097 
Q 1594 3097 1305 2825 
Q 1016 2553 972 2059 
L 3022 2063 
z
" transform="scale(0.015625)"/>
       <path id="DejaVuSans-64" d="M 2906 2969 
L 2906 4863 
L 3481 4863 
L 3481 0 
L 2906 0 
L 2906 525 
Q 2725 213 2448 61 
Q 2172 -91 1784 -91 
Q 1150 -91 751 415 
Q 353 922 353 1747 
Q 353 2572 751 3078 
Q 1150 3584 1784 3584 
Q 2172 3584 2448 3432 
Q 2725 3281 2906 2969 
z
M 947 1747 
Q 947 1113 1208 752 
Q 1469 391 1925 391 
Q 2381 391 2643 752 
Q 2906 1113 2906 1747 
Q 2906 2381 2643 2742 
Q 2381 3103 1925 3103 
Q 1469 3103 1208 2742 
Q 947 2381 947 1747 
z
" transform="scale(0.015625)"/>
       <path id="DejaVuSans-20" transform="scale(0.015625)"/>
       <path id="DejaVuSans-54" d="M -19 4666 
L 3928 4666 
L 3928 4134 
L 2272 4134 
L 2272 0 
L 1638 0 
L 1638 4134 
L -19 4134 
L -19 4666 
z
" transform="scale(0.015625)"/>
       <path id="DejaVuSans-69" d="M 603 3500 
L 1178 3500 
L 1178 0 
L 603 0 
L 603 3500 
z
M 603 4863 
L 1178 4863 
L 1178 4134 
L 603 4134 
L 603 4863 
z
" transform="scale(0.015625)"/>
       <path id="DejaVuSans-6d" d="M 3328 2828 
Q 3544 3216 3844 3400 
Q 4144 3584 4550 3584 
Q 5097 3584 5394 3201 
Q 5691 2819 5691 2113 
L 5691 0 
L 5113 0 
L 5113 2094 
Q 5113 2597 4934 2840 
Q 4756 3084 4391 3084 
Q 3944 3084 3684 2787 
Q 3425 2491 3425 1978 
L 3425 0 
L 2847 0 
L 2847 2094 
Q 2847 2600 2669 2842 
Q 2491 3084 2119 3084 
Q 1678 3084 1418 2786 
Q 1159 2488 1159 1978 
L 1159 0 
L 581 0 
L 581 3500 
L 1159 3500 
L 1159 2956 
Q 1356 3278 1631 3431 
Q 1906 3584 2284 3584 
Q 2666 3584 2933 3390 
Q 3200 3197 3328 2828 
z
" transform="scale(0.015625)"/>
       <path id="DejaVuSans-28" d="M 1984 4856 
Q 1566 4138 1362 3434 
Q 1159 2731 1159 2009 
Q 1159 1288 1364 580 
Q 1569 -128 1984 -844 
L 1484 -844 
Q 1016 -109 783 600 
Q 550 1309 550 2009 
Q 550 2706 781 3412 
Q 1013 4119 1484 4856 
L 1984 4856 
z
" transform="scale(0.015625)"/>
       <path id="DejaVuSans-6e" d="M 3513 2113 
L 3513 0 
L 2938 0 
L 2938 2094 
Q 2938 2591 2744 2837 
Q 2550 3084 2163 3084 
Q 1697 3084 1428 2787 
Q 1159 2491 1159 1978 
L 1159 0 
L 581 0 
L 581 3500 
L 1159 3500 
L 1159 2956 
Q 1366 3272 1645 3428 
Q 1925 3584 2291 3584 
Q 2894 3584 3203 3211 
Q 3513 2838 3513 2113 
z
" transform="scale(0.015625)"/>
       <path id="DejaVuSans-29" d="M 513 4856 
L 1013 4856 
Q 1481 4119 1714 3412 
Q 1947 2706 1947 2009 
Q 1947 1309 1714 600 
Q 1481 -109 1013 -844 
L 513 -844 
Q 928 -128 1133 580 
Q 1338 1288 1338 2009 
Q 1338 2731 1133 3434 
Q 928 4138 513 4856 
z
" transform="scale(0.015625)"/>
      </defs>
      <use xlink:href="#DejaVuSans-45"/>
      <use xlink:href="#DejaVuSans-6c" x="63.183594"/>
      <use xlink:href="#DejaVuSans-61" x="90.966797"/>
      <use xlink:href="#DejaVuSans-70" x="152.246094"/>
      <use xlink:href="#DejaVuSans-73" x="215.722656"/>
      <use xlink:href="#DejaVuSans-65" x="267.822266"/>
      <use xlink:href="#DejaVuSans-64" x="329.345703"/>
      <use xlink:href="#DejaVuSans-20" x="392.822266"/>
      <use xlink:href="#DejaVuSans-54" x="424.609375"/>
      <use xlink:href="#DejaVuSans-69" x="482.568359"/>
      <use xlink:href="#DejaVuSans-6d" x="510.351562"/>
      <use xlink:href="#DejaVuSans-65" x="607.763672"/>
      <use xlink:href="#DejaVuSans-20" x="669.287109"/>
      <use xlink:href="#DejaVuSans-28" x="701.074219"/>
      <use xlink:href="#DejaVuSans-6d" x="740.087891"/>
      <use xlink:href="#DejaVuSans-69" x="837.5"/>
      <use xlink:href="#DejaVuSans-6e" x="865.283203"/>
      <use xlink:href="#DejaVuSans-29" x="928.662109"/>
     </g>
    </g>
   </g>
   <g id="matplotlib.axis_2">
    <g id="ytick_1">
     <g id="line2d_7">
      <defs>
       <path id="m880664e5ed" d="M 0 0 
L -3.5 0 
" style="stroke: #000000; stroke-width: 0.8"/>
      </defs>
      <g>
       <use xlink:href="#m880664e5ed" x="54" y="247.194146" style="stroke: #000000; stroke-width: 0.8"/>
      </g>
     </g>
     <g id="text_8">
      <!-- 22 -->
      <g transform="translate(34.275 250.993364)scale(0.1 -0.1)">
       <use xlink:href="#DejaVuSans-32"/>
       <use xlink:href="#DejaVuSans-32" x="63.623047"/>
      </g>
     </g>
    </g>
    <g id="ytick_2">
     <g id="line2d_8">
      <g>
       <use xlink:href="#m880664e5ed" x="54" y="221.558442" style="stroke: #000000; stroke-width: 0.8"/>
      </g>
     </g>
     <g id="text_9">
      <!-- 24 -->
      <g transform="translate(34.275 225.357661)scale(0.1 -0.1)">
       <use xlink:href="#DejaVuSans-32"/>
       <use xlink:href="#DejaVuSans-34" x="63.623047"/>
      </g>
     </g>
    </g>
    <g id="ytick_3">
     <g id="line2d_9">
      <g>
       <use xlink:href="#m880664e5ed" x="54" y="195.922738" style="stroke: #000000; stroke-width: 0.8"/>
      </g>
     </g>
     <g id="text_10">
      <!-- 26 -->
      <g transform="translate(34.275 199.721957)scale(0.1 -0.1)">
       <defs>
        <path id="DejaVuSans-36" d="M 2113 2584 
Q 1688 2584 1439 2293 
Q 1191 2003 1191 1497 
Q 1191 994 1439 701 
Q 1688 409 2113 409 
Q 2538 409 2786 701 
Q 3034 994 3034 1497 
Q 3034 2003 2786 2293 
Q 2538 2584 2113 2584 
z
M 3366 4563 
L 3366 3988 
Q 3128 4100 2886 4159 
Q 2644 4219 2406 4219 
Q 1781 4219 1451 3797 
Q 1122 3375 1075 2522 
Q 1259 2794 1537 2939 
Q 1816 3084 2150 3084 
Q 2853 3084 3261 2657 
Q 3669 2231 3669 1497 
Q 3669 778 3244 343 
Q 2819 -91 2113 -91 
Q 1303 -91 875 529 
Q 447 1150 447 2328 
Q 447 3434 972 4092 
Q 1497 4750 2381 4750 
Q 2619 4750 2861 4703 
Q 3103 4656 3366 4563 
z
" transform="scale(0.015625)"/>
       </defs>
       <use xlink:href="#DejaVuSans-32"/>
       <use xlink:href="#DejaVuSans-36" x="63.623047"/>
      </g>
     </g>
    </g>
    <g id="ytick_4">
     <g id="line2d_10">
      <g>
       <use xlink:href="#m880664e5ed" x="54" y="170.287035" style="stroke: #000000; stroke-width: 0.8"/>
      </g>
     </g>
     <g id="text_11">
      <!-- 28 -->
      <g transform="translate(34.275 174.086254)scale(0.1 -0.1)">
       <defs>
        <path id="DejaVuSans-38" d="M 2034 2216 
Q 1584 2216 1326 1975 
Q 1069 1734 1069 1313 
Q 1069 891 1326 650 
Q 1584 409 2034 409 
Q 2484 409 2743 651 
Q 3003 894 3003 1313 
Q 3003 1734 2745 1975 
Q 2488 2216 2034 2216 
z
M 1403 2484 
Q 997 2584 770 2862 
Q 544 3141 544 3541 
Q 544 4100 942 4425 
Q 1341 4750 2034 4750 
Q 2731 4750 3128 4425 
Q 3525 4100 3525 3541 
Q 3525 3141 3298 2862 
Q 3072 2584 2669 2484 
Q 3125 2378 3379 2068 
Q 3634 1759 3634 1313 
Q 3634 634 3220 271 
Q 2806 -91 2034 -91 
Q 1263 -91 848 271 
Q 434 634 434 1313 
Q 434 1759 690 2068 
Q 947 2378 1403 2484 
z
M 1172 3481 
Q 1172 3119 1398 2916 
Q 1625 2713 2034 2713 
Q 2441 2713 2670 2916 
Q 2900 3119 2900 3481 
Q 2900 3844 2670 4047 
Q 2441 4250 2034 4250 
Q 1625 4250 1398 4047 
Q 1172 3844 1172 3481 
z
" transform="scale(0.015625)"/>
       </defs>
       <use xlink:href="#DejaVuSans-32"/>
       <use xlink:href="#DejaVuSans-38" x="63.623047"/>
      </g>
     </g>
    </g>
    <g id="ytick_5">
     <g id="line2d_11">
      <g>
       <use xlink:href="#m880664e5ed" x="54" y="144.651331" style="stroke: #000000; stroke-width: 0.8"/>
      </g>
     </g>
     <g id="text_12">
      <!-- 30 -->
      <g transform="translate(34.275 148.45055)scale(0.1 -0.1)">
       <use xlink:href="#DejaVuSans-33"/>
       <use xlink:href="#DejaVuSans-30" x="63.623047"/>
      </g>
     </g>
    </g>
    <g id="ytick_6">
     <g id="line2d_12">
      <g>
       <use xlink:href="#m880664e5ed" x="54" y="119.015628" style="stroke: #000000; stroke-width: 0.8"/>
      </g>
     </g>
     <g id="text_13">
      <!-- 32 -->
      <g transform="translate(34.275 122.814846)scale(0.1 -0.1)">
       <use xlink:href="#DejaVuSans-33"/>
       <use xlink:href="#DejaVuSans-32" x="63.623047"/>
      </g>
     </g>
    </g>
    <g id="ytick_7">
     <g id="line2d_13">
      <g>
       <use xlink:href="#m880664e5ed" x="54" y="93.379924" style="stroke: #000000; stroke-width: 0.8"/>
      </g>
     </g>
     <g id="text_14">
      <!-- 34 -->
      <g transform="translate(34.275 97.179143)scale(0.1 -0.1)">
       <use xlink:href="#DejaVuSans-33"/>
       <use xlink:href="#DejaVuSans-34" x="63.623047"/>
      </g>
     </g>
    </g>
    <g id="ytick_8">
     <g id="line2d_14">
      <g>
       <use xlink:href="#m880664e5ed" x="54" y="67.74422" style="stroke: #000000; stroke-width: 0.8"/>
      </g>
     </g>
     <g id="text_15">
      <!-- 36 -->
      <g transform="translate(34.275 71.543439)scale(0.1 -0.1)">
       <use xlink:href="#DejaVuSans-33"/>
       <use xlink:href="#DejaVuSans-36" x="63.623047"/>
      </g>
     </g>
    </g>
    <g id="ytick_9">
     <g id="line2d_15">
      <g>
       <use xlink:href="#m880664e5ed" x="54" y="42.108517" style="stroke: #000000; stroke-width: 0.8"/>
      </g>
     </g>
     <g id="text_16">
      <!-- 38 -->
      <g transform="translate(34.275 45.907736)scale(0.1 -0.1)">
       <use xlink:href="#DejaVuSans-33"/>
       <use xlink:href="#DejaVuSans-38" x="63.623047"/>
      </g>
     </g>
    </g>
    <g id="text_17">
     <!-- Stock Price ($) -->
     <g transform="translate(28.195312 179.576875)rotate(-90)scale(0.1 -0.1)">
      <defs>
       <path id="DejaVuSans-53" d="M 3425 4513 
L 3425 3897 
Q 3066 4069 2747 4153 
Q 2428 4238 2131 4238 
Q 1616 4238 1336 4038 
Q 1056 3838 1056 3469 
Q 1056 3159 1242 3001 
Q 1428 2844 1947 2747 
L 2328 2669 
Q 3034 2534 3370 2195 
Q 3706 1856 3706 1288 
Q 3706 609 3251 259 
Q 2797 -91 1919 -91 
Q 1588 -91 1214 -16 
Q 841 59 441 206 
L 441 856 
Q 825 641 1194 531 
Q 1563 422 1919 422 
Q 2459 422 2753 634 
Q 3047 847 3047 1241 
Q 3047 1584 2836 1778 
Q 2625 1972 2144 2069 
L 1759 2144 
Q 1053 2284 737 2584 
Q 422 2884 422 3419 
Q 422 4038 858 4394 
Q 1294 4750 2059 4750 
Q 2388 4750 2728 4690 
Q 3069 4631 3425 4513 
z
" transform="scale(0.015625)"/>
       <path id="DejaVuSans-74" d="M 1172 4494 
L 1172 3500 
L 2356 3500 
L 2356 3053 
L 1172 3053 
L 1172 1153 
Q 1172 725 1289 603 
Q 1406 481 1766 481 
L 2356 481 
L 2356 0 
L 1766 0 
Q 1100 0 847 248 
Q 594 497 594 1153 
L 594 3053 
L 172 3053 
L 172 3500 
L 594 3500 
L 594 4494 
L 1172 4494 
z
" transform="scale(0.015625)"/>
       <path id="DejaVuSans-6f" d="M 1959 3097 
Q 1497 3097 1228 2736 
Q 959 2375 959 1747 
Q 959 1119 1226 758 
Q 1494 397 1959 397 
Q 2419 397 2687 759 
Q 2956 1122 2956 1747 
Q 2956 2369 2687 2733 
Q 2419 3097 1959 3097 
z
M 1959 3584 
Q 2709 3584 3137 3096 
Q 3566 2609 3566 1747 
Q 3566 888 3137 398 
Q 2709 -91 1959 -91 
Q 1206 -91 779 398 
Q 353 888 353 1747 
Q 353 2609 779 3096 
Q 1206 3584 1959 3584 
z
" transform="scale(0.015625)"/>
       <path id="DejaVuSans-63" d="M 3122 3366 
L 3122 2828 
Q 2878 2963 2633 3030 
Q 2388 3097 2138 3097 
Q 1578 3097 1268 2742 
Q 959 2388 959 1747 
Q 959 1106 1268 751 
Q 1578 397 2138 397 
Q 2388 397 2633 464 
Q 2878 531 3122 666 
L 3122 134 
Q 2881 22 2623 -34 
Q 2366 -91 2075 -91 
Q 1284 -91 818 406 
Q 353 903 353 1747 
Q 353 2603 823 3093 
Q 1294 3584 2113 3584 
Q 2378 3584 2631 3529 
Q 2884 3475 3122 3366 
z
" transform="scale(0.015625)"/>
       <path id="DejaVuSans-6b" d="M 581 4863 
L 1159 4863 
L 1159 1991 
L 2875 3500 
L 3609 3500 
L 1753 1863 
L 3688 0 
L 2938 0 
L 1159 1709 
L 1159 0 
L 581 0 
L 581 4863 
z
" transform="scale(0.015625)"/>
       <path id="DejaVuSans-50" d="M 1259 4147 
L 1259 2394 
L 2053 2394 
Q 2494 2394 2734 2622 
Q 2975 2850 2975 3272 
Q 2975 3691 2734 3919 
Q 2494 4147 2053 4147 
L 1259 4147 
z
M 628 4666 
L 2053 4666 
Q 2838 4666 3239 4311 
Q 3641 3956 3641 3272 
Q 3641 2581 3239 2228 
Q 2838 1875 2053 1875 
L 1259 1875 
L 1259 0 
L 628 0 
L 628 4666 
z
" transform="scale(0.015625)"/>
       <path id="DejaVuSans-72" d="M 2631 2963 
Q 2534 3019 2420 3045 
Q 2306 3072 2169 3072 
Q 1681 3072 1420 2755 
Q 1159 2438 1159 1844 
L 1159 0 
L 581 0 
L 581 3500 
L 1159 3500 
L 1159 2956 
Q 1341 3275 1631 3429 
Q 1922 3584 2338 3584 
Q 2397 3584 2469 3576 
Q 2541 3569 2628 3553 
L 2631 2963 
z
" transform="scale(0.015625)"/>
       <path id="DejaVuSans-24" d="M 2163 -941 
L 1850 -941 
L 1847 0 
Q 1519 6 1191 76 
Q 863 147 531 288 
L 531 850 
Q 850 650 1176 548 
Q 1503 447 1850 444 
L 1850 1869 
Q 1159 1981 845 2250 
Q 531 2519 531 2988 
Q 531 3497 872 3790 
Q 1213 4084 1850 4128 
L 1850 4863 
L 2163 4863 
L 2163 4138 
Q 2453 4125 2725 4076 
Q 2997 4028 3256 3944 
L 3256 3397 
Q 2997 3528 2723 3600 
Q 2450 3672 2163 3684 
L 2163 2350 
Q 2872 2241 3206 1959 
Q 3541 1678 3541 1191 
Q 3541 663 3186 358 
Q 2831 53 2163 6 
L 2163 -941 
z
M 1850 2406 
L 1850 3688 
Q 1488 3647 1297 3481 
Q 1106 3316 1106 3041 
Q 1106 2772 1282 2622 
Q 1459 2472 1850 2406 
z
M 2163 1806 
L 2163 453 
Q 2559 506 2761 678 
Q 2963 850 2963 1131 
Q 2963 1406 2770 1568 
Q 2578 1731 2163 1806 
z
" transform="scale(0.015625)"/>
      </defs>
      <use xlink:href="#DejaVuSans-53"/>
      <use xlink:href="#DejaVuSans-74" x="63.476562"/>
      <use xlink:href="#DejaVuSans-6f" x="102.685547"/>
      <use xlink:href="#DejaVuSans-63" x="163.867188"/>
      <use xlink:href="#DejaVuSans-6b" x="218.847656"/>
      <use xlink:href="#DejaVuSans-20" x="276.757812"/>
      <use xlink:href="#DejaVuSans-50" x="308.544922"/>
      <use xlink:href="#DejaVuSans-72" x="367.097656"/>
      <use xlink:href="#DejaVuSans-69" x="408.210938"/>
      <use xlink:href="#DejaVuSans-63" x="435.994141"/>
      <use xlink:href="#DejaVuSans-65" x="490.974609"/>
      <use xlink:href="#DejaVuSans-20" x="552.498047"/>
      <use xlink:href="#DejaVuSans-28" x="584.285156"/>
      <use xlink:href="#DejaVuSans-24" x="623.298828"/>
      <use xlink:href="#DejaVuSans-29" x="686.921875"/>
     </g>
    </g>
   </g>
   <g id="line2d_16">
    <path d="M 69.218182 144.651331 
L 69.826909 141.467927 
L 70.435636 142.354053 
L 71.044364 138.203065 
L 71.653091 128.442079 
L 72.870545 131.443317 
L 73.479273 121.322259 
L 74.088 116.403827 
L 74.696727 119.412654 
L 75.305455 115.935427 
L 76.522909 121.890264 
L 77.131636 120.339545 
L 78.349091 143.656487 
L 78.957818 147.260146 
L 79.566545 153.751306 
L 80.175273 151.737318 
L 80.784 157.556777 
L 81.392727 166.608127 
L 82.001455 157.214893 
L 82.610182 158.661876 
L 83.218909 158.229093 
L 83.827636 167.360198 
L 84.436364 170.849107 
L 85.045091 170.138212 
L 85.653818 177.514845 
L 86.262545 175.107024 
L 86.871273 178.956473 
L 87.48 180.825917 
L 88.088727 184.68221 
L 88.697455 172.811096 
L 89.306182 172.897599 
L 89.914909 179.67639 
L 90.523636 174.40476 
L 91.132364 182.229057 
L 91.741091 180.890466 
L 92.349818 193.449846 
L 92.958545 201.962092 
L 93.567273 200.700423 
L 94.176 195.967645 
L 94.784727 194.869359 
L 95.393455 195.61054 
L 96.002182 197.540291 
L 96.610909 207.016029 
L 97.219636 211.629457 
L 97.828364 214.581657 
L 98.437091 207.806639 
L 99.045818 205.604415 
L 99.654545 216.903609 
L 100.263273 214.826579 
L 100.872 217.294542 
L 101.480727 221.632885 
L 102.089455 217.712697 
L 103.306909 205.136593 
L 103.915636 210.515075 
L 104.524364 212.496795 
L 105.133091 210.373752 
L 105.741818 204.121555 
L 106.350545 207.192548 
L 106.959273 208.382422 
L 108.176727 223.139241 
L 108.785455 217.931823 
L 109.394182 209.239781 
L 110.002909 209.701289 
L 110.611636 203.269721 
L 111.220364 200.952022 
L 111.829091 205.086547 
L 112.437818 202.770389 
L 113.046545 192.913227 
L 113.655273 193.142833 
L 114.264 183.115148 
L 114.872727 199.9049 
L 115.481455 194.637388 
L 116.090182 194.07951 
L 116.698909 195.995826 
L 117.307636 195.407738 
L 117.916364 208.14592 
L 118.525091 209.55378 
L 119.133818 207.265072 
L 119.742545 197.793359 
L 120.351273 201.114914 
L 120.96 206.29649 
L 121.568727 209.512214 
L 122.177455 203.645469 
L 122.786182 201.538528 
L 123.394909 204.933722 
L 124.003636 201.644229 
L 124.612364 201.022066 
L 125.221091 194.814092 
L 125.829818 199.313498 
L 126.438545 201.413461 
L 127.047273 203.926453 
L 127.656 213.306012 
L 128.873455 209.735115 
L 129.482182 209.702343 
L 130.090909 211.205795 
L 130.699636 220.276801 
L 131.917091 225.169118 
L 132.525818 230.310853 
L 133.134545 231.344521 
L 133.743273 228.754989 
L 134.352 216.666564 
L 134.960727 215.547707 
L 135.569455 213.897086 
L 136.178182 214.374204 
L 136.786909 226.671467 
L 137.395636 226.841392 
L 138.004364 226.455381 
L 138.613091 210.668645 
L 139.221818 211.901472 
L 139.830545 209.968878 
L 140.439273 210.191343 
L 141.048 217.681314 
L 141.656727 210.357047 
L 142.874182 200.468299 
L 143.482909 206.296496 
L 144.091636 197.306091 
L 144.700364 206.290451 
L 145.309091 202.529327 
L 145.917818 188.490859 
L 146.526545 194.839133 
L 147.135273 198.468493 
L 147.744 197.829835 
L 148.352727 201.056573 
L 148.961455 210.99466 
L 149.570182 210.555245 
L 150.178909 217.363471 
L 150.787636 214.328252 
L 151.396364 220.220774 
L 152.005091 210.287359 
L 152.613818 215.307172 
L 153.222545 217.37124 
L 153.831273 212.157468 
L 154.44 220.045987 
L 155.048727 218.588213 
L 155.657455 210.210832 
L 156.266182 220.513073 
L 156.874909 219.329768 
L 157.483636 217.664198 
L 158.092364 212.653553 
L 159.309818 229.043787 
L 159.918545 225.698703 
L 161.744727 219.969599 
L 162.353455 224.327827 
L 162.962182 222.83933 
L 163.570909 220.96105 
L 164.179636 225.539276 
L 164.788364 213.581665 
L 165.397091 210.544905 
L 166.005818 218.179881 
L 166.614545 213.972077 
L 167.223273 220.21874 
L 167.832 215.174373 
L 168.440727 207.74902 
L 169.049455 213.008712 
L 169.658182 206.834506 
L 170.266909 204.189024 
L 170.875636 198.920501 
L 171.484364 186.764095 
L 172.093091 188.336769 
L 173.310545 198.868241 
L 173.919273 204.096708 
L 174.528 204.590848 
L 175.745455 200.631139 
L 176.354182 195.329783 
L 176.962909 195.246455 
L 177.571636 185.930862 
L 178.180364 187.627029 
L 178.789091 170.193666 
L 179.397818 166.18381 
L 180.006545 171.677269 
L 180.615273 178.54054 
L 181.224 175.44841 
L 181.832727 176.880567 
L 182.441455 172.30459 
L 183.050182 169.271645 
L 183.658909 169.738401 
L 184.267636 175.165439 
L 184.876364 184.873982 
L 185.485091 187.735664 
L 186.093818 182.247067 
L 186.702545 180.874956 
L 187.311273 188.858804 
L 187.92 187.7489 
L 188.528727 185.27943 
L 189.137455 190.944006 
L 189.746182 189.958794 
L 190.354909 189.585738 
L 190.963636 196.91095 
L 191.572364 194.617917 
L 192.181091 191.023891 
L 193.398545 177.328957 
L 194.007273 186.158337 
L 194.616 192.168789 
L 196.442182 182.274247 
L 197.050909 157.582377 
L 197.659636 153.923582 
L 198.877091 140.531699 
L 199.485818 136.356981 
L 200.094545 138.377518 
L 200.703273 133.51334 
L 201.312 138.46632 
L 201.920727 139.984073 
L 202.529455 143.094732 
L 203.138182 142.570007 
L 203.746909 127.735531 
L 204.355636 139.702696 
L 204.964364 135.304505 
L 205.573091 145.640281 
L 206.181818 148.664858 
L 206.790545 141.685854 
L 207.399273 141.273888 
L 208.008 148.181075 
L 208.616727 152.765403 
L 209.225455 148.409911 
L 209.834182 153.090777 
L 210.442909 151.70351 
L 211.051636 151.411443 
L 211.660364 155.587502 
L 212.269091 141.847123 
L 212.877818 137.784383 
L 213.486545 150.763372 
L 214.095273 149.5684 
L 214.704 153.80974 
L 215.312727 148.346558 
L 215.921455 153.425765 
L 216.530182 154.161102 
L 217.138909 150.924676 
L 217.747636 145.376115 
L 218.356364 153.068726 
L 218.965091 155.21252 
L 219.573818 158.256409 
L 220.182545 162.443548 
L 220.791273 151.128882 
L 221.4 148.533384 
L 222.008727 156.614296 
L 222.617455 150.731787 
L 223.226182 137.131045 
L 223.834909 130.514052 
L 224.443636 140.251581 
L 225.052364 143.355002 
L 225.661091 135.235462 
L 226.269818 139.770863 
L 226.878545 136.926457 
L 227.487273 131.961885 
L 228.096 137.902514 
L 228.704727 138.284007 
L 229.313455 159.05705 
L 229.922182 165.622274 
L 230.530909 167.240965 
L 231.139636 175.237915 
L 231.748364 164.775912 
L 232.357091 173.941582 
L 232.965818 176.761794 
L 233.574545 175.923888 
L 234.183273 166.686874 
L 234.792 175.889208 
L 235.400727 168.434578 
L 236.009455 168.368995 
L 236.618182 174.659411 
L 237.226909 171.697824 
L 237.835636 170.422065 
L 238.444364 174.268811 
L 239.053091 173.821454 
L 239.661818 176.290901 
L 240.270545 175.563376 
L 240.879273 171.31983 
L 241.488 161.155166 
L 242.096727 169.088233 
L 242.705455 155.417781 
L 243.314182 167.928567 
L 243.922909 168.901346 
L 244.531636 165.130865 
L 245.140364 163.330009 
L 245.749091 167.320844 
L 246.357818 168.654684 
L 246.966545 171.81429 
L 247.575273 175.591485 
L 248.184 170.146448 
L 248.792727 167.858363 
L 249.401455 172.299169 
L 250.010182 166.5337 
L 250.618909 164.56424 
L 251.227636 159.354667 
L 251.836364 155.319422 
L 252.445091 160.63239 
L 253.053818 164.222549 
L 254.271273 155.521382 
L 254.88 155.655338 
L 255.488727 154.903396 
L 256.097455 146.714936 
L 256.706182 150.506273 
L 257.314909 146.999967 
L 258.532364 149.690907 
L 259.141091 142.648928 
L 260.358545 132.145173 
L 260.967273 123.778456 
L 261.576 123.643844 
L 262.184727 119.273258 
L 262.793455 121.261734 
L 263.402182 119.184176 
L 264.010909 120.018253 
L 264.619636 119.396613 
L 265.228364 115.582296 
L 265.837091 120.826212 
L 266.445818 107.416257 
L 267.054545 113.863748 
L 267.663273 121.645393 
L 268.272 114.223146 
L 268.880727 109.149438 
L 270.098182 101.122481 
L 270.706909 101.200969 
L 271.315636 106.951406 
L 271.924364 106.46558 
L 272.533091 110.80546 
L 273.141818 104.555989 
L 273.750545 105.498469 
L 274.359273 110.78902 
L 274.968 112.848758 
L 275.576727 110.202311 
L 276.185455 113.81518 
L 276.794182 119.084729 
L 278.011636 115.952983 
L 279.229091 122.220794 
L 279.837818 120.733603 
L 281.055273 139.0346 
L 281.664 143.639055 
L 282.272727 145.007022 
L 282.881455 143.014439 
L 283.490182 133.55899 
L 284.098909 128.062313 
L 284.707636 129.087347 
L 285.316364 129.209221 
L 285.925091 135.634357 
L 286.533818 135.753006 
L 287.142545 137.602998 
L 287.751273 135.534719 
L 288.36 140.836381 
L 288.968727 137.507927 
L 289.577455 127.684717 
L 290.186182 128.381753 
L 290.794909 125.807212 
L 291.403636 121.384131 
L 292.012364 123.955523 
L 292.621091 122.519331 
L 293.229818 122.438627 
L 293.838545 121.812628 
L 294.447273 126.766791 
L 295.056 126.609707 
L 295.664727 123.418073 
L 296.273455 114.117801 
L 296.882182 107.969905 
L 297.490909 94.170318 
L 298.099636 99.088192 
L 298.708364 93.497554 
L 299.317091 92.322528 
L 299.925818 78.288244 
L 301.143273 88.850282 
L 301.752 92.691746 
L 302.360727 106.303636 
L 302.969455 109.673161 
L 303.578182 114.538386 
L 304.186909 113.574523 
L 304.795636 111.384234 
L 305.404364 99.359995 
L 306.013091 93.268799 
L 306.621818 96.966131 
L 307.230545 102.724004 
L 307.839273 99.571331 
L 308.448 108.032608 
L 309.056727 96.294924 
L 309.665455 88.73598 
L 310.274182 91.742892 
L 310.882909 102.722244 
L 311.491636 94.045376 
L 312.100364 94.779454 
L 312.709091 86.846381 
L 313.317818 97.064949 
L 313.926545 100.9063 
L 314.535273 100.872693 
L 315.144 100.571598 
L 315.752727 103.456034 
L 316.361455 99.464235 
L 316.970182 106.306535 
L 317.578909 107.219035 
L 318.187636 106.448069 
L 318.796364 103.151069 
L 319.405091 98.590382 
L 320.013818 105.79813 
L 320.622545 115.630154 
L 321.231273 107.441618 
L 321.84 105.311842 
L 322.448727 110.108836 
L 323.057455 100.167618 
L 323.666182 99.426268 
L 324.274909 91.86824 
L 324.883636 91.435519 
L 326.101091 66.978489 
L 326.709818 68.574082 
L 327.318545 62.347355 
L 327.927273 58.211189 
L 328.536 49.43973 
L 329.144727 55.623853 
L 329.753455 51.227 
L 330.362182 44.443636 
L 330.970909 55.715267 
L 331.579636 63.298684 
L 332.188364 76.367971 
L 332.797091 78.09458 
L 333.405818 73.495905 
L 334.014545 63.86741 
L 334.623273 63.392542 
L 335.232 52.954865 
L 335.840727 61.799833 
L 336.449455 72.716685 
L 337.058182 73.072686 
L 337.666909 70.611239 
L 338.275636 70.820778 
L 338.884364 84.070861 
L 339.493091 84.642024 
L 340.101818 93.002273 
L 340.710545 88.710391 
L 341.319273 86.36089 
L 341.928 92.38451 
L 342.536727 95.677845 
L 343.145455 102.466266 
L 343.754182 102.867972 
L 344.362909 96.746535 
L 344.971636 103.063981 
L 345.580364 99.833584 
L 346.189091 103.231966 
L 346.797818 108.313429 
L 347.406545 108.999378 
L 348.015273 115.63417 
L 348.624 119.182467 
L 349.232727 126.859578 
L 349.841455 114.2678 
L 350.450182 114.041798 
L 351.058909 118.526287 
L 351.667636 117.154906 
L 352.276364 117.874808 
L 352.885091 119.290986 
L 353.493818 115.354837 
L 354.102545 110.500026 
L 355.32 117.590345 
L 355.928727 119.353131 
L 356.537455 134.105973 
L 357.146182 143.816721 
L 357.754909 135.056525 
L 358.363636 124.514049 
L 358.972364 126.110102 
L 359.581091 122.414991 
L 360.189818 120.420212 
L 360.798545 100.687893 
L 361.407273 93.51262 
L 362.016 94.332435 
L 362.624727 100.456423 
L 363.233455 110.752018 
L 363.842182 109.448035 
L 364.450909 114.295431 
L 365.059636 123.410549 
L 365.668364 127.554387 
L 366.277091 134.485948 
L 366.885818 123.673182 
L 367.494545 118.022818 
L 368.103273 118.073914 
L 368.712 108.589062 
L 369.320727 108.093214 
L 369.929455 113.613121 
L 370.538182 103.851532 
L 371.146909 100.397697 
L 371.755636 107.045331 
L 372.364364 108.265197 
L 372.973091 113.87697 
L 373.581818 122.739231 
L 373.581818 122.739231 
" clip-path="url(#p91ba405242)" style="fill: none; stroke: #1f77b4; stroke-width: 1.5; stroke-linecap: square"/>
   </g>
   <g id="line2d_17">
    <path d="M 69.218182 214.159127 
L 373.581818 92.698334 
L 373.581818 92.698334 
" clip-path="url(#p91ba405242)" style="fill: none; stroke: #ff7f0e; stroke-width: 1.5; stroke-linecap: square"/>
   </g>
   <g id="line2d_18">
    <path d="M 69.218182 186.201891 
L 373.581818 64.741097 
L 373.581818 64.741097 
" clip-path="url(#p91ba405242)" style="fill: none; stroke: #2ca02c; stroke-width: 1.5; stroke-linecap: square"/>
   </g>
   <g id="line2d_19">
    <path d="M 69.218182 242.116364 
L 373.581818 120.65557 
L 373.581818 120.65557 
" clip-path="url(#p91ba405242)" style="fill: none; stroke: #d62728; stroke-width: 1.5; stroke-linecap: square"/>
   </g>
   <g id="patch_3">
    <path d="M 54 252 
L 54 34.56 
" style="fill: none; stroke: #000000; stroke-width: 0.8; stroke-linejoin: miter; stroke-linecap: square"/>
   </g>
   <g id="patch_4">
    <path d="M 388.8 252 
L 388.8 34.56 
" style="fill: none; stroke: #000000; stroke-width: 0.8; stroke-linejoin: miter; stroke-linecap: square"/>
   </g>
   <g id="patch_5">
    <path d="M 54 252 
L 388.8 252 
" style="fill: none; stroke: #000000; stroke-width: 0.8; stroke-linejoin: miter; stroke-linecap: square"/>
   </g>
   <g id="patch_6">
    <path d="M 54 34.56 
L 388.8 34.56 
" style="fill: none; stroke: #000000; stroke-width: 0.8; stroke-linejoin: miter; stroke-linecap: square"/>
   </g>
  </g>
 </g>
 <defs>
  <clipPath id="p91ba405242">
   <rect x="54" y="34.56" width="334.8" height="217.44"/>
  </clipPath>
 </defs>
</svg>
